<?xml version="1.0" encoding="UTF-8" standalone="no"?>
<!-- Created with Inkscape (http://www.inkscape.org/) -->

<svg
   width="59.531246mm"
   height="42.597916mm"
   viewBox="0 0 59.531245 42.597916"
   version="1.1"
   id="svg4961"
   xml:space="preserve"
   inkscape:export-filename="gulftech.svg"
   inkscape:export-xdpi="224.00002"
   inkscape:export-ydpi="224.00002"
   inkscape:version="1.2.2 (b0a8486, 2022-12-01)"
   sodipodi:docname="drawinggt.svg"
   xmlns:inkscape="http://www.inkscape.org/namespaces/inkscape"
   xmlns:sodipodi="http://sodipodi.sourceforge.net/DTD/sodipodi-0.dtd"
   xmlns="http://www.w3.org/2000/svg"
   xmlns:svg="http://www.w3.org/2000/svg"><sodipodi:namedview
     id="namedview4963"
     pagecolor="#ffffff"
     bordercolor="#000000"
     borderopacity="0.25"
     inkscape:showpageshadow="2"
     inkscape:pageopacity="0.0"
     inkscape:pagecheckerboard="0"
     inkscape:deskcolor="#d1d1d1"
     inkscape:document-units="mm"
     showgrid="false"
     inkscape:zoom="0.51765941"
     inkscape:cx="677.08612"
     inkscape:cy="244.36917"
     inkscape:window-width="1720"
     inkscape:window-height="1387"
     inkscape:window-x="1536"
     inkscape:window-y="25"
     inkscape:window-maximized="0"
     inkscape:current-layer="layer1"
     showguides="true"><sodipodi:guide
       position="-55.413596,88.075278"
       orientation="1,0"
       id="guide20642"
       inkscape:locked="false" /><sodipodi:guide
       position="-63.821176,-124.02503"
       orientation="1,0"
       id="guide20644"
       inkscape:locked="false" /><sodipodi:guide
       position="262.63326,-53.324384"
       orientation="0,-1"
       id="guide20646"
       inkscape:locked="false" /><sodipodi:guide
       position="263.67705,-58.968843"
       orientation="0,-1"
       id="guide20648"
       inkscape:locked="false" /></sodipodi:namedview><defs
     id="defs4958" /><g
     inkscape:label="Layer 1"
     inkscape:groupmode="layer"
     id="layer1"
     transform="translate(-151.4508,-142.11252)"><g
       id="g8361"
       transform="translate(86.830837,42.597916)"
       style="display:inline"
       inkscape:label="Logo"
       inkscape:export-filename="glogo.svg"
       inkscape:export-xdpi="224.00002"
       inkscape:export-ydpi="224.00002"><path
         style="display:inline;fill:#ddddde;stroke-width:0.264583"
         d="m 67.001215,139.99585 c -0.519137,-0.51913 -0.529167,-0.88194 -0.529167,-19.14128 0,-18.58553 7.96e-4,-18.61284 0.556945,-19.11615 0.539931,-0.48863 1.371591,-0.50403 27.224305,-0.50403 25.852712,0 26.684372,0.0154 27.224302,0.50403 0.55622,0.50337 0.55695,0.52867 0.55695,19.23344 v 18.7294 l -0.58804,0.41188 c -0.52278,0.36617 -3.54726,0.41188 -27.252084,0.41188 -26.311267,0 -26.671045,-0.007 -27.193211,-0.52917 z m 54.371165,-0.62324 c 0.3599,-0.54927 0.39988,-2.78156 0.33683,-18.80683 -0.0694,-17.65087 -0.0866,-18.19457 -0.58513,-18.55904 -0.43538,-0.3183 -4.53191,-0.37547 -26.902148,-0.37547 h -26.38856 l -0.55369,0.7039 c -0.55121,0.70075 -0.553371,0.78473 -0.482225,18.74488 0.05872,14.82357 0.136226,18.11898 0.434592,18.47839 0.333345,0.40154 2.551632,0.43741 27.047546,0.43741 H 120.96402 Z M 84.141156,137.8803 c -5.594856,-0.71761 -10.549189,-4.2232 -12.902062,-9.12924 -2.4388,-5.0852 -2.469869,-10.58544 -0.08724,-15.44397 1.31752,-2.68661 4.71766,-6.14404 7.226443,-7.34821 3.018397,-1.44876 5.216134,-1.78481 11.773959,-1.80031 l 5.820833,-0.0138 v 3.96875 3.96875 l -5.159375,0.15434 c -6.035019,0.18053 -7.34372,0.52611 -9.175175,2.42282 -1.738431,1.80037 -2.282704,3.13141 -2.408273,5.88951 -0.146894,3.22649 0.486659,4.95283 2.589305,7.05548 1.277481,1.27748 1.791553,1.59074 3.424385,2.08669 3.508546,1.06569 6.75099,0.20779 9.103366,-2.40862 0.647589,-0.72028 1.308076,-1.30959 1.467747,-1.30959 0.199848,0 0.290312,1.47126 0.290312,4.72149 0,5.48594 0.107169,5.24799 -2.81826,6.25739 -2.987028,1.03065 -5.980296,1.33452 -9.145966,0.92848 z m -1.411571,-13.30453 c -0.07347,-0.19146 -0.1003,-2.00925 -0.05962,-4.03953 l 0.07396,-3.69143 h 6.614584 6.614583 v 3.96875 3.96875 l -6.554962,0.0708 c -5.224845,0.0564 -6.582069,1.5e-4 -6.688543,-0.27732 z"
         id="path8367" /><path
         style="display:inline;fill:#d41e39;stroke-width:0.264583"
         d="m 105.3658,136.98212 c -3.6604,-0.81387 -5.559543,-2.76171 -6.531704,-6.69923 -0.592805,-2.40103 -0.633765,-12.96201 -0.0517,-13.33066 0.592699,-0.37538 7.731454,-0.29648 8.234714,0.091 0.36284,0.27938 0.44521,1.11116 0.53059,5.35781 0.0556,2.7649 0.19713,5.23985 0.31456,5.49989 0.44218,0.97924 1.54619,1.24699 5.14168,1.24699 1.88709,0 3.61941,0.0723 3.84959,0.1606 0.35344,0.13562 0.41852,0.72396 0.41852,3.78354 0,2.46506 -0.10147,3.72441 -0.3175,3.94044 -0.43055,0.43055 -9.60509,0.39065 -11.58875,-0.0504 z m -8.360877,-25.07498 c -0.106567,-0.17243 -0.244052,-1.8216 -0.305525,-3.66483 -0.09566,-2.86808 -0.04843,-3.41466 0.327464,-3.79056 0.393967,-0.39396 1.48373,-0.43923 10.574398,-0.43923 8.32049,0 10.18971,0.0657 10.4398,0.36707 0.2059,0.24809 0.28072,1.55588 0.23084,4.03489 l -0.0738,3.66783 -10.49971,0.0692 c -7.870533,0.0518 -10.54822,-0.009 -10.693457,-0.24434 z"
         id="path8365" /><path
         style="display:inline;fill:#606062;stroke-width:0.264583"
         d="M 64.619965,120.81356 V 99.514603 h 29.765625 29.76562 v 21.298957 21.29896 H 94.38559 64.619965 Z m 56.826545,19.29958 0.58804,-0.41188 v -18.7294 c 0,-18.70477 -7.3e-4,-18.73007 -0.55695,-19.23344 -0.53993,-0.48863 -1.37159,-0.50403 -27.224302,-0.50403 -25.852714,0 -26.684374,0.0154 -27.224305,0.50403 -0.556149,0.50331 -0.556945,0.53062 -0.556945,19.11615 0,18.25934 0.01003,18.62215 0.529167,19.14128 0.522166,0.52217 0.881944,0.52917 27.193211,0.52917 23.704824,0 26.729304,-0.0457 27.252084,-0.41188 z m -54.214461,-0.5547 c -0.298366,-0.35941 -0.375871,-3.65482 -0.434592,-18.47839 -0.07115,-17.96015 -0.06898,-18.04413 0.482225,-18.74488 l 0.55369,-0.7039 h 26.38856 c 22.370238,0 26.466768,0.0572 26.902148,0.37547 0.49855,0.36447 0.51569,0.90817 0.58513,18.55904 0.0631,16.02527 0.0231,18.25756 -0.33683,18.80683 l -0.40836,0.62324 H 94.279595 c -24.495914,0 -26.714201,-0.0359 -27.047546,-0.43741 z m 22.173459,-1.69805 c 2.359852,-0.3231 5.452879,-1.31595 6.196718,-1.98912 0.458677,-0.4151 0.503156,-0.87272 0.503156,-5.17684 0,-3.25023 -0.09046,-4.72149 -0.290312,-4.72149 -0.159671,0 -0.820158,0.58931 -1.467747,1.30959 -2.352376,2.61641 -5.59482,3.47431 -9.103366,2.40862 -1.632832,-0.49595 -2.146904,-0.80921 -3.424385,-2.08669 -2.102646,-2.10265 -2.736199,-3.82899 -2.589305,-7.05548 0.125569,-2.7581 0.669842,-4.08914 2.408273,-5.88951 1.831455,-1.89671 3.140156,-2.24229 9.175175,-2.42282 l 5.159375,-0.15434 v -3.96875 -3.96875 l -5.820833,0.0138 c -9.036756,0.0214 -11.713179,0.85015 -15.75213,4.87788 -3.450821,3.44124 -5.00178,7.10965 -5.013068,11.85717 -0.02277,9.57661 7.160516,16.805 17.108032,17.21546 0.462413,0.0191 1.7721,-0.0928 2.910417,-0.24869 z m 27.549042,-0.82787 c 0.21603,-0.21603 0.3175,-1.47538 0.3175,-3.94044 0,-3.05958 -0.0651,-3.64792 -0.41852,-3.78354 -0.23018,-0.0883 -1.9625,-0.1606 -3.84959,-0.1606 -3.59549,0 -4.6995,-0.26775 -5.14168,-1.24699 -0.11743,-0.26004 -0.25898,-2.73499 -0.31456,-5.49989 -0.0854,-4.24665 -0.16775,-5.07843 -0.53059,-5.35781 -0.50326,-0.3875 -7.642018,-0.4664 -8.234717,-0.091 -0.582062,0.36865 -0.541102,10.92963 0.0517,13.33066 0.972161,3.93752 2.871307,5.88536 6.531707,6.69923 1.98366,0.44105 11.1582,0.48095 11.58875,0.0504 z M 95.97309,120.81356 v -3.96875 h -6.614583 -6.614584 l -0.07396,3.69143 c -0.04068,2.03028 -0.01385,3.84807 0.05962,4.03953 0.106474,0.27747 1.463698,0.33374 6.688543,0.27732 l 6.554962,-0.0708 z m 22.29881,-12.39908 c 0.0499,-2.47901 -0.0249,-3.7868 -0.23084,-4.03489 -0.25009,-0.30135 -2.11931,-0.36707 -10.4398,-0.36707 -9.090668,0 -10.180431,0.0453 -10.574398,0.43923 -0.375899,0.3759 -0.423119,0.92248 -0.327464,3.79056 0.06147,1.84323 0.198958,3.4924 0.305525,3.66483 0.145237,0.235 2.822924,0.29618 10.693457,0.24434 l 10.49971,-0.0692 z"
         id="path8363"
         inkscape:label="BG" /></g></g></svg>
